PathFileType	4	(X/Y/Z)	E:\Qualisys_Data\Carbon_Farble_Plate\Data\Amateur_Runner\S1\T1\S1T1V13_c3d.trc
DataRate	CameraRate	NumFrames	NumMarkers	Units	OrigDataRate	OrigDataStartFrame	OrigNumFrames
200.000000	200.000000	4	39	mm	200.000000	123	328
Frame#	Time	LSHO			RSHO			LICST			RICST			LASIS			LHEEL			RASIS			LTROC			RTROC			SACR			LTH1			LSK4			LTH2			LTH3			RHM5			LSK2			LTH4			RTH1			LTOE			RTH2			RTH3			RTH4			LLEP			RLEP			LSK1			LSK3			RSK1			LHM5			RSK2			LFT1			RSK3			RSK4			LLME			RLME			RTOE			RHEEL			RFT1			RFT2			LFT2			
		X1	Y1	Z1	X2	Y2	Z2	X3	Y3	Z3	X4	Y4	Z4	X5	Y5	Z5	X6	Y6	Z6	X7	Y7	Z7	X8	Y8	Z8	X9	Y9	Z9	X10	Y10	Z10	X11	Y11	Z11	X12	Y12	Z12	X13	Y13	Z13	X14	Y14	Z14	X15	Y15	Z15	X16	Y16	Z16	X17	Y17	Z17	X18	Y18	Z18	X19	Y19	Z19	X20	Y20	Z20	X21	Y21	Z21	X22	Y22	Z22	X23	Y23	Z23	X24	Y24	Z24	X25	Y25	Z25	X26	Y26	Z26	X27	Y27	Z27	X28	Y28	Z28	X29	Y29	Z29	X30	Y30	Z30	X31	Y31	Z31	X32	Y32	Z32	X33	Y33	Z33	X34	Y34	Z34	X35	Y35	Z35	X36	Y36	Z36	X37	Y37	Z37	X38	Y38	Z38	X39	Y39	Z39	

124	0.615	-580.5389404296875	1442.911376953125	-608.7669677734375	-593.6392211914062	1460.290771484375	-276.9732360839844	-646.0610961914062	997.669189453125	-553.0009765625	-635.1919555664062	1009.088989257812	-251.8515625	-599.3179931640625	958.5478515625	-528.8876953125	-923.3624877929688	102.3785018920898	-434.6487121582031	-596.0985717773438	961.9981079101562	-262.2107238769531	-710.801513671875	878.6054077148438	-568.8751220703125	-697.7542114257812	866.8729858398438	-230.7671966552734	-756.8735961914062	1020.256225585938	-393.5308532714844	-574.219482421875	731.4099731445312	-551.1226806640625	-828.2601928710938	248.2664794921875	-477.2687683105469	-656.2682495117188	721.1386108398438	-575.0146484375	-568.5448608398438	628.1421508789062	-537.6011962890625	-750.6952514648438	153.0587921142578	-238.3427276611328	-770.09326171875	323.5627746582031	-519.9124755859375	-653.4653930664062	622.8118286132812	-551.2098388671875	-527.5546264648438	790.8273315429688	-246.3405151367188	-667.09814453125	58.13193511962891	-445.9159851074219	-595.1878051757812	753.144775390625	-221.5181427001953	-478.2275695800781	701.6089477539062	-248.2917785644531	-549.6448364257812	663.8068237304688	-231.9747467041016	-614.4152221679688	469.2225036621094	-511.6775512695312	-456.8795471191406	527.6315307617188	-268.5155029296875	-703.564208984375	275.2182922363281	-502.1900634765625	-767.2730712890625	197.3599395751953	-492.4055786132812	-588.0528564453125	407.0903015136719	-250.5655517578125	-736.6810302734375	56.40790939331055	-504.6659851074219	-637.0875244140625	469.6961059570312	-270.7677001953125	-915.408203125	75.55128479003906	-406.4947814941406	-665.658203125	342.8370666503906	-262.6091003417969	-712.7008056640625	404.2732238769531	-288.6431274414062	-860.7775268554688	118.7440872192383	-483.0110473632812	-786.6751708984375	289.5	-263.3213500976562	-686.6754150390625	115.8317794799805	-311.8770446777344	-857.4916381835938	305.5877685546875	-308.0796813964844	-870.8814086914062	276.68408203125	-339.4601745605469	-872.81103515625	286.3533325195312	-281.137939453125	-923.4874877929688	74.63687896728516	-460.8524780273438
125	0.62	-563.7775268554688	1446.360595703125	-607.9053955078125	-580.9554443359375	1462.853271484375	-276.2892456054688	-629.7515869140625	998.670654296875	-553.2872314453125	-619.2633666992188	1012.701782226562	-252.2796783447266	-583.7294921875	960.1074829101562	-529.7399291992188	-922.2515258789062	104.5358810424805	-433.3221130371094	-578.5435180664062	966.106689453125	-266.6331481933594	-696.8320922851562	881.174072265625	-568.3624877929688	-681.5787353515625	870.3783569335938	-229.9576873779297	-741.3408813476562	1023.334655761719	-394.1779479980469	-563.0185546875	731.4581909179688	-550.2842407226562	-825.5955810546875	250.8269958496094	-476.7927551269531	-644.9605712890625	723.032470703125	-574.5845336914062	-559.5821533203125	628.1011962890625	-536.552490234375	-717.6763916015625	149.4234161376953	-238.2089996337891	-767.3848876953125	326.1869506835938	-519.220458984375	-644.8811645507812	624.3666381835938	-550.1605834960938	-511.4548950195312	796.2249145507812	-246.8269500732422	-666.723876953125	57.93958282470703	-445.5634155273438	-578.142333984375	757.8526611328125	-221.0610198974609	-460.7760620117188	707.5213012695312	-248.8089141845703	-531.4962158203125	668.8568725585938	-231.6334228515625	-609.6891479492188	470.2244873046875	-511.1709289550781	-436.9048767089844	533.5030517578125	-268.6571655273438	-701.0587768554688	277.0338439941406	-502.14501953125	-765.0723266601562	199.7764129638672	-492.6343994140625	-565.1082763671875	408.2908935546875	-252.3290710449219	-736.323486328125	56.96321487426758	-504.5518493652344	-616.5291137695312	469.9742431640625	-271.0827941894531	-915.2010498046876	76.99176788330078	-406.6411437988281	-639.8607788085938	342.0436706542969	-262.62158203125	-688.6906127929688	401.2130737304688	-289.21240234375	-859.160888671875	121.8168106079102	-483.0887756347656	-759.3994750976562	284.195068359375	-263.444580078125	-651.811767578125	115.1008911132812	-312.0454406738281	-833.2247924804688	296.5496215820312	-309.0456848144531	-845.9484252929688	268.5145874023438	-340.5711364746094	-846.8675537109375	278.5604553222656	-281.6900634765625	-923.0679931640624	77.2159652709961	-460.092529296875
126	0.625	-546.8338623046875	1450.048583984375	-606.8959350585938	-568.1710815429688	1465.768188476562	-275.9273071289062	-614.0537719726562	1001.056640625	-553.3655395507812	-603.3562622070312	1015.88818359375	-253.1567535400391	-567.9752807617188	962.0269165039062	-530.4388427734375	-920.8056030273438	109.0007247924805	-433.6658630371094	-563.4871215820312	969.069580078125	-265.9341735839844	-681.9260864257812	883.685791015625	-568.04541015625	-665.119384765625	873.9559936523438	-229.5400390625	-725.38427734375	1026.401733398438	-394.5355224609375	-551.5458984375	731.670166015625	-548.6498413085938	-823.1884155273438	254.1581726074219	-476.0885620117188	-633.5211181640625	725.0933837890625	-574.0784912109375	-550.391357421875	628.0778198242188	-535.3286743164062	-684.4071044921875	145.7141723632812	-238.1084136962891	-764.4461669921875	329.4910888671875	-518.6401977539062	-635.8345336914062	626.9108276367188	-549.4849853515625	-495.2201232910156	801.7088623046875	-247.8318634033203	-666.8843383789062	57.63248443603516	-445.3433837890625	-561.3738403320312	762.1529541015625	-221.4630737304688	-443.2895812988281	713.641357421875	-249.2857360839844	-513.4583129882812	674.2576293945312	-231.6916351318359	-605.3427124023438	471.597412109375	-510.6867065429688	-417.6763916015625	539.4585571289062	-268.8999328613281	-698.4625854492188	279.2232666015625	-501.9024047851562	-763.1192626953125	202.6207580566406	-492.7115783691406	-541.7025146484375	410.2996826171875	-252.0168914794922	-735.96484375	57.29448699951172	-504.46630859375	-595.5689697265625	469.6461791992188	-271.613525390625	-913.5045166015624	80.27008056640625	-406.1463317871094	-613.994873046875	340.7490539550781	-262.906005859375	-665.1145629882812	398.1360473632812	-289.7138671875	-857.20849609375	125.130973815918	-483.1696166992188	-731.4103393554688	278.615478515625	-264.0451965332031	-616.5865478515625	114.1835174560547	-311.8846435546875	-805.5489501953125	287.8594665527344	-309.6572875976562	-812.85986328125	257.3319702148438	-340.4202270507812	-817.80029296875	267.4430236816406	-283.5635681152344	-921.4506225585938	81.66397094726562	-460.6209106445312
127	0.63	-529.81396484375	1454.058959960938	-605.9713134765625	-555.371826171875	1468.877685546875	-275.3955993652344	-598.2418823242188	1003.379150390625	-553.7122802734375	-587.21435546875	1019.605102539062	-253.5335388183594	-552.2764892578125	963.9644165039062	-530.369873046875	-918.2200317382812	114.4639205932617	-435.3335876464844	-548.500732421875	971.9306640625	-264.832275390625	-667.25	886.5708618164062	-568.0636596679688	-648.4879760742188	877.9649047851562	-228.5415344238281	-710.3809204101562	1029.30419921875	-394.6713562011719	-540.2359008789062	732.2022094726562	-547.8279418945312	-820.4063110351562	257.8174743652344	-475.4676208496094	-622.0750732421875	727.4376831054688	-573.6812133789062	-541.5941162109375	628.7584228515625	-534.283203125	-650.80908203125	142.2864837646484	-238.6568603515625	-761.4285278320312	332.4664611816406	-517.8837280273438	-626.7803344726562	629.0814208984375	-548.7691040039062	-478.9372863769531	806.9498291015625	-248.4324645996094	-666.487548828125	57.378662109375	-445.0183715820312	-543.9654541015625	767.1194458007812	-221.9219818115234	-425.9962463378906	719.5684814453125	-249.7046051025391	-495.6577453613281	679.386962890625	-231.7658386230469	-600.6963500976562	473.6697387695312	-509.8987731933594	-398.4958801269531	545.4606323242188	-268.8409118652344	-696.0447998046875	282.302490234375	-501.6938781738281	-760.8872680664062	205.9183959960938	-492.4273376464844	-518.5685424804688	411.636474609375	-251.7905731201172	-735.4969482421875	58.00698471069336	-504.0087280273438	-574.553955078125	469.17041015625	-271.6546020507812	-912.2987060546876	86.9330062866211	-406.6235961914062	-588.0553588867188	339.0527648925781	-262.8021240234375	-641.2481079101562	394.7376098632812	-289.9351196289062	-855.3740234375	128.8660430908203	-482.9950561523438	-702.9430541992188	272.904541015625	-263.6584167480469	-581.6211547851562	113.7157287597656	-311.8043518066406	-778.2100830078125	278.9678955078125	-310.2846069335938	-784.0770874023438	248.2963256835938	-341.1636657714844	-789.3733520507812	257.9838562011719	-284.0770263671875	-919.5269165039062	86.89474487304688	-461.4574279785156
